<svg width="684" height="208" viewBox="0 0 684 208" fill="none" xmlns="http://www.w3.org/2000/svg">
    <path fill-rule="evenodd" clip-rule="evenodd" d="M82.2344 109.27L27.4115 109.27L0 158.635L27.4115 208H82.2344L109.646 158.635L82.2344 109.27ZM35.2576 130.451V186.689H58.3669C62.4166 186.689 65.8235 186.012 68.5878 184.657C71.3522 183.302 73.4386 181.463 74.8472 179.138C76.2733 176.794 76.9864 174.131 76.9864 171.147C76.9864 168.382 76.423 166.002 75.2961 164.007C74.1693 161.993 72.6991 160.428 70.8856 159.311C69.0897 158.195 67.1617 157.59 65.1016 157.499V156.95C66.9856 156.51 68.6583 155.769 70.1197 154.725C71.5987 153.664 72.7607 152.309 73.6059 150.661C74.451 148.995 74.8736 147.064 74.8736 144.867C74.8736 142.048 74.2045 139.558 72.8664 137.398C71.5282 135.22 69.5298 133.517 66.8712 132.29C64.2125 131.064 60.8936 130.451 56.9144 130.451H35.2576ZM56.0164 176.968H46.6934V162.03H56.2805C58.1116 162.03 59.6875 162.369 61.008 163.046C62.3461 163.723 63.3762 164.657 64.098 165.847C64.8199 167.037 65.1809 168.41 65.1809 169.966C65.1809 172.09 64.4502 173.792 62.9888 175.074C61.5274 176.337 59.2033 176.968 56.0164 176.968ZM55.1713 153.984H46.6934V140.062H55.3825C57.918 140.062 59.8723 140.684 61.2457 141.929C62.6367 143.174 63.3321 144.812 63.3321 146.844C63.3321 148.327 62.9712 149.6 62.2493 150.661C61.545 151.723 60.5766 152.547 59.3441 153.133C58.1292 153.7 56.7383 153.984 55.1713 153.984Z" fill="#FF0BC9"/>
    <path fill-rule="evenodd" clip-rule="evenodd" d="M196.605 109.27L141.782 109.27L114.371 158.635L141.782 208H196.605L224.017 158.635L196.605 109.27ZM176.567 137.303V161.523C176.584 163.409 176.223 164.992 175.484 166.274C174.762 167.555 173.811 168.526 172.632 169.185C171.452 169.825 170.184 170.146 168.828 170.146C166.698 170.146 164.999 169.423 163.731 167.976C162.463 166.53 161.821 164.562 161.803 162.072V137.303H150.552V164.159C150.57 167.455 151.151 170.283 152.295 172.645C153.457 175.006 155.068 176.828 157.128 178.109C159.188 179.391 161.574 180.031 164.286 180.031C167.332 180.031 169.911 179.281 172.024 177.78C174.155 176.278 175.678 174.292 176.593 171.821H177.016V179.482H187.818V137.303H176.567Z" fill="#FCE300"/>
    <path fill-rule="evenodd" clip-rule="evenodd" d="M312.226 109.27L257.403 109.27L229.992 158.635L257.403 208H312.226L339.637 158.635L312.226 109.27ZM292.047 149.889L302.347 149.23C301.854 145.349 300.128 142.283 297.17 140.031C294.23 137.779 290.198 136.653 285.074 136.653C281.606 136.653 278.577 137.184 275.989 138.246C273.418 139.308 271.42 140.818 269.994 142.777C268.585 144.736 267.881 147.07 267.881 149.779C267.881 152.928 268.84 155.519 270.76 157.551C272.696 159.583 275.646 161.011 279.607 161.834L286.632 163.29C288.393 163.656 289.696 164.187 290.541 164.883C291.386 165.56 291.818 166.429 291.835 167.491C291.818 168.754 291.201 169.789 289.987 170.594C288.789 171.381 287.205 171.775 285.233 171.775C283.225 171.775 281.579 171.336 280.294 170.457C279.009 169.56 278.199 168.26 277.864 166.558L266.798 167.162C267.344 171.189 269.201 174.375 272.371 176.718C275.558 179.043 279.836 180.205 285.206 180.205C288.728 180.205 291.835 179.629 294.529 178.475C297.241 177.304 299.371 175.674 300.921 173.587C302.488 171.5 303.271 169.075 303.271 166.31C303.271 163.272 302.303 160.818 300.366 158.951C298.429 157.084 295.489 155.729 291.545 154.887L284.203 153.349C282.319 152.928 280.989 152.37 280.215 151.674C279.44 150.979 279.053 150.127 279.053 149.12C279.053 147.857 279.651 146.85 280.848 146.1C282.046 145.331 283.516 144.946 285.259 144.946C286.562 144.946 287.68 145.175 288.613 145.633C289.564 146.072 290.33 146.667 290.911 147.418C291.492 148.15 291.87 148.974 292.047 149.889Z" fill="#EB2B2B"/>
    <path fill-rule="evenodd" clip-rule="evenodd" d="M427.847 109.27L373.024 109.27L345.612 158.635L373.024 208H427.847L455.258 158.635L427.847 109.27ZM412.473 150.997V142.21H404.841V132.105H393.59V142.21H388.044V150.997H393.59V172.966C393.572 175.73 394.127 178.018 395.254 179.831C396.381 181.643 397.956 182.979 399.981 183.84C402.024 184.7 404.401 185.076 407.112 184.966C408.573 184.911 409.815 184.755 410.836 184.499C411.857 184.261 412.65 184.05 413.213 183.867L411.443 175.162C411.162 175.217 410.757 175.3 410.229 175.41C409.7 175.501 409.172 175.547 408.644 175.547C407.887 175.547 407.218 175.428 406.637 175.19C406.073 174.952 405.633 174.54 405.316 173.954C404.999 173.35 404.841 172.508 404.841 171.428V150.997H412.473Z" fill="#FCE300"/>
    <path fill-rule="evenodd" clip-rule="evenodd" d="M542.218 109.27L487.395 109.27L459.983 158.635L487.395 208H542.218L569.629 158.635L542.218 109.27ZM504.889 177.569C507.9 179.327 511.492 180.205 515.665 180.205C519.01 180.205 521.959 179.674 524.512 178.613C527.083 177.533 529.178 176.031 530.798 174.109C532.435 172.169 533.518 169.899 534.046 167.299L523.641 166.585C523.253 167.647 522.69 168.544 521.95 169.276C521.211 170.008 520.322 170.558 519.283 170.924C518.244 171.29 517.1 171.473 515.849 171.473C513.966 171.473 512.337 171.061 510.964 170.237C509.59 169.413 508.525 168.242 507.768 166.722C507.028 165.203 506.659 163.4 506.659 161.313V161.285H534.284V158.072C534.284 154.484 533.8 151.354 532.832 148.681C531.863 145.99 530.507 143.756 528.764 141.981C527.039 140.205 525.014 138.878 522.69 137.999C520.383 137.102 517.892 136.653 515.216 136.653C511.236 136.653 507.768 137.569 504.81 139.399C501.869 141.23 499.589 143.784 497.969 147.061C496.35 150.338 495.54 154.146 495.54 158.484C495.54 162.933 496.35 166.786 497.969 170.045C499.589 173.285 501.896 175.793 504.889 177.569ZM506.669 154.036C506.737 152.521 507.112 151.139 507.794 149.889C508.534 148.516 509.555 147.427 510.858 146.621C512.178 145.798 513.693 145.386 515.4 145.386C517.038 145.386 518.473 145.761 519.705 146.512C520.956 147.244 521.933 148.26 522.637 149.56C523.341 150.86 523.693 152.352 523.693 154.036H506.669Z" fill="#7DE614"/>
    <path fill-rule="evenodd" clip-rule="evenodd" d="M656.589 109.27L601.766 109.27L574.354 158.635L601.766 208H656.589L684 158.635L656.589 109.27ZM616.785 137.907V180.086H628.036V156.223C628.036 154.502 628.406 152.983 629.146 151.665C629.903 150.347 630.924 149.322 632.209 148.589C633.512 147.839 634.991 147.464 636.646 147.464C637.421 147.464 638.275 147.528 639.208 147.656C640.141 147.784 640.872 147.93 641.4 148.095V137.715C640.907 137.587 640.335 137.486 639.683 137.413C639.032 137.34 638.424 137.303 637.861 137.303C635.59 137.303 633.582 137.981 631.839 139.335C630.096 140.672 628.855 142.649 628.115 145.267H627.693V137.907H616.785Z" fill="#FF0BC9"/>
    <path fill-rule="evenodd" clip-rule="evenodd" d="M140.357 4H85.5344L58.1229 53.3649L85.5344 102.73H140.357L167.769 53.3649L140.357 4ZM93.3806 25.1805V81.4191H116.49C120.539 81.4191 123.946 80.7417 126.711 79.387C129.475 78.0323 131.562 76.1925 132.97 73.8675C134.396 71.5242 135.109 68.8606 135.109 65.8766C135.109 63.1122 134.546 60.7323 133.419 58.7369C132.292 56.7231 130.822 55.1579 129.008 54.0412C127.213 52.9245 125.285 52.3204 123.225 52.2288V51.6796C125.109 51.2403 126.781 50.4988 128.243 49.4553C129.722 48.3935 130.884 47.0388 131.729 45.3912C132.574 43.7253 132.996 41.7939 132.996 39.5971C132.996 36.7779 132.327 34.2881 130.989 32.1279C129.651 29.9494 127.653 28.2469 124.994 27.0203C122.335 25.7938 119.016 25.1805 115.037 25.1805H93.3806ZM114.139 71.6981H104.816V56.7598H114.403C116.235 56.7598 117.81 57.0984 119.131 57.7758C120.469 58.4531 121.499 59.3868 122.221 60.5767C122.943 61.7667 123.304 63.1397 123.304 64.6958C123.304 66.8194 122.573 68.5219 121.112 69.8034C119.65 71.0666 117.326 71.6981 114.139 71.6981ZM113.294 48.7139H104.816V34.7916H113.505C116.041 34.7916 117.995 35.414 119.369 36.6589C120.76 37.9037 121.455 39.5422 121.455 41.5742C121.455 43.0571 121.094 44.3294 120.372 45.3912C119.668 46.453 118.7 47.2768 117.467 47.8626C116.252 48.4302 114.861 48.7139 113.294 48.7139Z" fill="#EB2B2B"/>
    <path fill-rule="evenodd" clip-rule="evenodd" d="M254.728 4H199.905L172.494 53.3649L199.905 102.73H254.728L282.14 53.3649L254.728 4ZM233.166 81.4191V25.1805H221.915V81.4191H233.166Z" fill="#7DE614"/>
    <path fill-rule="evenodd" clip-rule="evenodd" d="M376.599 4H321.776L294.364 53.3649L321.776 102.73H376.599L404.01 53.3649L376.599 4ZM338.346 74.3258C341.339 76.1382 344.887 77.0443 348.99 77.0443C353.092 77.0443 356.631 76.1382 359.607 74.3258C362.6 72.4951 364.906 69.9505 366.526 66.6918C368.146 63.4149 368.956 59.6162 368.956 55.2958C368.956 50.9388 368.146 47.131 366.526 43.8724C364.906 40.5955 362.6 38.0508 359.607 36.2384C356.631 34.4077 353.092 33.4924 348.99 33.4924C344.887 33.4924 341.339 34.4077 338.346 36.2384C335.371 38.0508 333.073 40.5955 331.453 43.8724C329.833 47.131 329.023 50.9388 329.023 55.2958C329.023 59.6162 329.833 63.4149 331.453 66.6918C333.073 69.9505 335.371 72.4951 338.346 74.3258ZM353.717 66.3349C352.467 67.4333 350.909 67.9825 349.042 67.9825C347.159 67.9825 345.574 67.4333 344.289 66.3349C343.021 65.2181 342.061 63.6987 341.41 61.7765C340.776 59.8542 340.459 57.6666 340.459 55.2135C340.459 52.7603 340.776 50.5727 341.41 48.6505C342.061 46.7282 343.021 45.2088 344.289 44.0921C345.574 42.9753 347.159 42.417 349.042 42.417C350.909 42.417 352.467 42.9753 353.717 44.0921C354.967 45.2088 355.909 46.7282 356.543 48.6505C357.195 50.5727 357.52 52.7603 357.52 55.2135C357.52 57.6666 357.195 59.8542 356.543 61.7765C355.909 63.6987 354.967 65.2181 353.717 66.3349Z" fill="#4076DD"/>
    <path fill-rule="evenodd" clip-rule="evenodd" d="M490.97 4H436.147L408.735 53.3649L436.147 102.73H490.97L518.381 53.3649L490.97 4ZM454.16 72.1892C457.153 74.0199 460.728 74.9352 464.883 74.9352C468.492 74.9352 471.618 74.2487 474.259 72.8757C476.9 71.5027 478.969 69.5988 480.465 67.164C481.979 64.7109 482.825 61.8733 483.001 58.6513H472.384C472.172 60.1342 471.723 61.4065 471.037 62.4683C470.368 63.5118 469.514 64.3081 468.475 64.8573C467.454 65.4065 466.3 65.6811 465.015 65.6811C463.272 65.6811 461.749 65.1868 460.446 64.1983C459.143 63.2097 458.131 61.7726 457.409 59.887C456.704 58.0014 456.352 55.7131 456.352 53.0219C456.352 50.3675 456.713 48.1066 457.435 46.2393C458.157 44.372 459.161 42.9532 460.446 41.9829C461.749 40.9944 463.272 40.5001 465.015 40.5001C467.075 40.5001 468.739 41.15 470.007 42.4498C471.292 43.7312 472.084 45.4246 472.384 47.5299H483.001C482.842 44.2713 481.988 41.4337 480.439 39.0172C478.889 36.6007 476.785 34.7243 474.127 33.3879C471.468 32.0515 468.369 31.3833 464.83 31.3833C460.728 31.3833 457.189 32.3078 454.213 34.1568C451.237 35.9874 448.94 38.5412 447.32 41.8182C445.718 45.0768 444.917 48.8663 444.917 53.1867C444.917 57.4522 445.709 61.2234 447.293 64.5003C448.896 67.7773 451.185 70.3402 454.16 72.1892Z" fill="#EB2B2B"/>
    <path fill-rule="evenodd" clip-rule="evenodd" d="M605.34 4H550.517L523.106 53.3649L550.517 102.73H605.34L632.752 53.3649L605.34 4ZM569.913 68.3819V81.7735H558.662V25.5349H569.913V55.6039H570.521L583.515 39.5946H596.43L581.384 57.8652L597.196 81.7735H584.017L572.962 64.762L569.913 68.3819Z" fill="#4076DD"/>
</svg>