<svg width="200" height="200" viewBox="0 0 200 200" fill="none" xmlns="http://www.w3.org/2000/svg">
    <g clip-path="url(#clip0_2_66)">
        <path fill-rule="evenodd" clip-rule="evenodd" d="M150 3.8147e-06L50 0L0 100L50 200L150 200L200 100L150 3.8147e-06ZM64.3119 42.9059V156.83H106.465C113.851 156.83 120.066 155.458 125.108 152.714C130.15 149.969 133.956 146.242 136.525 141.533C139.127 136.786 140.427 131.39 140.427 125.345C140.427 119.745 139.4 114.924 137.344 110.882C135.289 106.803 132.607 103.632 129.299 101.37C126.023 99.1077 122.507 97.884 118.749 97.6985V96.586C122.185 95.696 125.236 94.194 127.902 92.0802C130.6 89.9293 132.72 87.185 134.261 83.8474C135.803 80.4727 136.574 76.5603 136.574 72.1101C136.574 66.3991 135.353 61.3556 132.912 56.9796C130.471 52.5665 126.826 49.1176 121.977 46.6329C117.127 44.1483 111.073 42.9059 103.815 42.9059H64.3119ZM102.177 137.138H85.1714V106.877H102.659C105.999 106.877 108.873 107.563 111.282 108.935C113.723 110.307 115.602 112.199 116.918 114.609C118.235 117.02 118.894 119.801 118.894 122.953C118.894 127.255 117.561 130.704 114.895 133.3C112.229 135.859 107.99 137.138 102.177 137.138ZM100.635 90.5783H85.1714V62.3754H101.021C105.646 62.3754 109.21 63.6363 111.716 66.158C114.253 68.6798 115.521 71.9989 115.521 76.1153C115.521 79.1191 114.863 81.6965 113.546 83.8474C112.261 85.9983 110.495 87.6671 108.247 88.8538C106.031 90.0035 103.494 90.5783 100.635 90.5783Z" fill="#EB2B2B"/>
    </g>
    <defs>
        <clipPath id="clip0_2_66">
            <rect width="200" height="200" fill="white"/>
        </clipPath>
    </defs>
</svg>
