<svg xmlns="http://www.w3.org/2000/svg">

    <symbol id="cross" viewBox="0 0 100 100">
        <path fill="currentColor" xmlns="http://www.w3.org/2000/svg" fill-rule="evenodd" clip-rule="evenodd" d="M93.4438 6.07187C91.4911 4.11927 88.3253 4.11927 86.3726 6.07187L49.952 42.4918L13.5314 6.07188C11.5788 4.11928 8.41293 4.11928 6.46029 6.07188L5.07012 7.46202C3.11748 9.41463 3.11748 12.5804 5.07012 14.533L41.4907 50.9529L5.07012 87.3728C3.11748 89.3254 3.11748 92.4912 5.07012 94.4438L6.46029 95.834C8.41293 97.7866 11.5788 97.7866 13.5314 95.834L49.952 59.4141L86.3726 95.834C88.3253 97.7866 91.4911 97.7866 93.4438 95.834L94.834 94.4438C96.7866 92.4912 96.7866 89.3254 94.8339 87.3728L58.4133 50.9529L94.834 14.533C96.7866 12.5804 96.7866 9.41462 94.8339 7.46202L93.4438 6.07187Z"/>
    </symbol>

    <symbol id="home" viewBox="0 0 50 50">
        <path fill="currentColor" d="M 25 1.0507812 C 24.7825 1.0507812 24.565859 1.1197656 24.380859 1.2597656 L 1.3808594 19.210938 C 0.95085938 19.550938 0.8709375 20.179141 1.2109375 20.619141 C 1.5509375 21.049141 2.1791406 21.129062 2.6191406 20.789062 L 4 19.710938 L 4 46 C 4 46.55 4.45 47 5 47 L 19 47 L 19 29 L 31 29 L 31 47 L 45 47 C 45.55 47 46 46.55 46 46 L 46 19.710938 L 47.380859 20.789062 C 47.570859 20.929063 47.78 21 48 21 C 48.3 21 48.589063 20.869141 48.789062 20.619141 C 49.129063 20.179141 49.049141 19.550938 48.619141 19.210938 L 25.619141 1.2597656 C 25.434141 1.1197656 25.2175 1.0507812 25 1.0507812 z M 35 5 L 35 6.0507812 L 41 10.730469 L 41 5 L 35 5 z"/>
    </symbol>

    <symbol id="download" viewBox="0 0 100 100">
        <path d="M50 8L50 70M50 70L26 50.5M50 70L73.5 50.5" stroke="white" stroke-width="10"/>
        <path fill-rule="evenodd" clip-rule="evenodd" d="M13 43H3V53V55V82C3 87.5229 7.47715 92 13 92H87C92.5229 92 97 87.5229 97 82V55V53V43H87V80C87 81.1046 86.1046 82 85 82H15C13.8954 82 13 81.1046 13 80V43Z" fill="currentColor"/>
        <rect x="44" y="8" width="11" height="59" fill="currentColor"/>
        <rect x="22" y="53.4265" width="11" height="36.4796" transform="rotate(-50 22 53.4265)" fill="currentColor"/>
        <rect x="70.9449" y="45" width="11" height="36.4796" transform="rotate(50 70.9449 45)" fill="currentColor"/>
    </symbol>

    <symbol id="cup" viewBox="0 0 100 100">
        <path fill-rule="evenodd" clip-rule="evenodd" d="M29.955 47.8031C22.3196 32.6404 22.3197 11 22.3197 11H78.0114C78.0114 11 78.0114 12.4323 77.8813 14.8182H94.5344C95.3438 14.8182 96 15.3066 96 15.9091V21.9091C96 37.5739 85.6655 50.2727 72.9173 50.2727C71.6647 50.2727 70.4355 50.1501 69.2371 49.9142C65.8309 55.8041 61.1024 60.4024 54.5382 61.8188C55.8068 69.9494 65.554 75.9091 65.554 75.9091L70.3091 75.9091C71.3253 75.9091 72.1491 76.4937 72.1491 77.2148V93.6943C72.1491 94.4154 71.3253 95 70.3091 95H29.2891C28.2729 95 27.4491 94.4154 27.4491 93.6943V77.2148C27.4491 76.4937 28.2729 75.9091 29.2891 75.9091L34.777 75.9091C34.777 75.9091 44.5243 69.9494 45.7928 61.8188C39.0148 60.3563 34.194 55.5011 30.7652 49.3345C30.7708 49.3446 30.7765 49.3548 30.7821 49.3649C29.5776 49.6034 28.342 49.7273 27.0827 49.7273C14.3345 49.7273 4 37.0284 4 21.3636V15.3636C4 14.7611 4.65616 14.2727 5.46557 14.2727H22.4213C22.4459 14.7707 22.4765 15.3179 22.5144 15.9091H7.66393C6.85451 15.9091 6.19836 16.3975 6.19836 17V21.2545C6.19836 21.2885 6.20044 21.3221 6.20452 21.3553H6.19836V22.3455C6.24381 36.574 15.4777 48.0909 26.8615 48.0909C27.9129 48.0909 28.9459 47.9927 29.955 47.8031ZM70.092 48.3574C71.0862 48.5411 72.1034 48.6364 73.1385 48.6364C84.5223 48.6364 93.7562 37.1195 93.8016 22.8909V21.9007H93.7955C93.7996 21.8675 93.8016 21.8339 93.8016 21.8V17.5455C93.8016 16.943 93.1455 16.4545 92.3361 16.4545H77.7802C77.2607 23.9912 75.5731 37.8485 70.092 48.3574ZM48.9203 19.0132C49.1879 18.4003 50.4104 18.4003 50.6779 19.0132L53.6292 25.7744C53.7486 26.0477 54.1048 26.234 54.508 26.234H64.1487C65.0293 26.234 65.4067 27.0274 64.7064 27.4061L56.8324 31.6644C56.5253 31.8305 56.397 32.1151 56.5113 32.3768L59.5008 39.2256C59.7658 39.8326 58.7766 40.3232 58.0644 39.938L50.3568 35.7697C50.0274 35.5915 49.5709 35.5915 49.2415 35.7697L41.5339 39.938C40.8217 40.3232 39.8325 39.8326 40.0975 39.2256L43.087 32.3768C43.2013 32.1151 43.073 31.8305 42.7658 31.6644L34.8919 27.4061C34.1916 27.0274 34.569 26.234 35.4496 26.234H45.0902C45.4935 26.234 45.8497 26.0477 45.969 25.7744L48.9203 19.0132ZM7.6234 22.3454H7.65044L7.64321 22.3455H7.6432H7.64319H7.64318C7.63658 22.3455 7.62999 22.3456 7.6234 22.3454ZM39.6657 83.5454C38.1798 83.5454 36.9754 84.4002 36.9754 85.4545C36.9754 86.5089 38.1798 87.3636 39.6657 87.3636H60.6653C62.1511 87.3636 63.3556 86.5089 63.3556 85.4545C63.3556 84.4002 62.1511 83.5454 60.6653 83.5454H39.6657Z" fill="currentColor"/>
    </symbol>

    <symbol id="checkmark" viewBox="0 0 100 100">
        <rect x="88.0483" y="17.3529" width="7" height="85.53" transform="rotate(42.0984 88.0483 17.3529)" fill="currentColor"/>
        <rect x="6" y="58.1892" width="7" height="40.1325" transform="rotate(-47.844 6 58.1892)" fill="currentColor"/>
    </symbol>

    <symbol id="bin" viewBox="0 0 100 100">
        <g clip-path="url(#clip0_134_2)">
            <path fill-rule="evenodd" clip-rule="evenodd" d="M65.0625 7.5C66.9095 7.5 68.0215 7.50614 68.7966 7.61748C69.0642 7.65592 69.2173 7.6976 69.2972 7.72567C69.3475 7.85172 69.4613 8.21453 69.535 9.07188C69.5938 9.75544 69.6185 10.5911 69.6289 11.6444H69.6227H69.566H69.5092H69.4524H69.3954H69.3384H69.2813H69.2242H69.1669H69.1096H69.0523H68.9949H68.9374H68.8798H68.8222H68.7645H68.7067H68.6489H68.591H68.5331H68.4751H68.4171H68.3589H68.3008H68.2425H68.1843H68.1259H68.0675H68.0091H67.9506H67.8921H67.8335H67.7748H67.7161H67.6574H67.5986H67.5398H67.4809H67.422H67.363H67.304H67.245H67.1859H67.1267H67.0676H67.0084H66.9491H66.8898H66.8305H66.7712H66.7118H66.6523H66.5929H66.5334H66.4739H66.4143H66.3548H66.2952H66.2355H66.1759H66.1162H66.0565H65.9968H65.937H65.8772H65.8174H65.7576H65.6978H65.6379H65.578H65.5182H65.4582H65.3983H65.3384H65.2784H65.2185H65.1585H65.0985H65.0385H64.9785H64.9185H64.8584H64.7984H64.7384H64.6783H64.6183H64.5582H64.4982H64.4381H64.3781H64.318H64.2579H64.1979H64.1378H64.0778H64.0177H63.9577H63.8976H63.8376H63.7776H63.7176H63.6576H63.5976H63.5376H63.4776H63.4177H63.3577H63.2978H63.2379H63.178H63.1181H63.0582H62.9984H62.9385H62.8787H62.8189H62.7591H62.6994H62.6397H62.58H62.5203H62.4607H62.401H62.3414H62.2819H62.2224H62.1628H62.1034H62.0439H61.9845H61.9251H61.8658H61.8065H61.7472H61.688H61.6288H61.5696H61.5105H61.4515H61.3924H61.3334H61.2745H61.2156H61.1567H61.0979H61.0391H60.9804H60.9217H60.8631H60.8045H60.746H60.6875H60.6291H60.5707H60.5124H60.4542H60.396H60.3378H60.2797H60.2217H60.1637H60.1058H60.0479H59.9901H59.9324H59.8747H59.8171H59.7596H59.7021H59.6447H59.5874H59.5301H59.4729H59.4158H59.3587H59.3018H59.2448H59.188H59.1312H59.0745H59.0179H58.9614H58.9049H58.8485H58.7922H58.736H58.6799H58.6238H58.5678H58.5119H58.4561H58.4004H58.3447H58.2892H58.2337H58.1784H58.1231H58.0679H58.0128H57.9578H57.9028H57.848H57.7933H57.7386H57.6841H57.6297H57.5753H57.5211H57.4669H57.4129H57.3589H57.3051H57.2513H57.1977H57.1442H57.0908H57.0374H56.9842H56.9311H56.8781H56.8252H56.7725H56.7198H56.6672H56.6148H56.5625H56.5103H56.4582H56.4062H56.3543H56.3026H56.251H56.1995H56.1481H56.0968H56.0457H55.9947H55.9438H55.893H55.8424H55.7919H55.7415H55.6912H55.6411H55.5911H55.5413H55.4915H55.4419H55.3924H55.3431H55.2939H55.2449H55.1959H55.1471H55.0985H55.05H55.0016H54.9534H54.9053H54.8574H54.8096H54.7619H54.7144H54.667H54.6198H54.5727H54.5258H54.479H54.4324H54.386H54.3396H54.2935H54.2475H54.2016H54.1559H54.1104H54.065H54.0198H53.9747H53.9298H53.885H53.8404H53.796H53.7518H53.7077H53.6637H53.6199H53.5763H53.5329H53.4896H53.4466H53.4036H53.3609H53.3183H53.2759H53.2336H53.1916H53.1497H53.108H53.0664H53.0251H52.9839H52.9429H52.9021H52.8614H52.821H52.7807H52.7406H52.7007H52.661H52.6214H52.5821H52.5429H52.5039H52.4651H52.4265H52.3881H52.3499H52.3119H52.2741H52.2365H52.199H52.1618H52.1247H52.0879H52.0512H52.0148H51.9785H51.9425H51.9067H51.871H51.8356H51.8003H51.7653H51.7305H51.6959H51.6615H51.6273H51.5933H51.5595H51.5259H51.4926H51.4594H51.4265H51.3938H51.3613H51.329H51.297H51.2651H51.2335H51.2021H51.1709H51.14H51.1092H51.0787H51.0484H51.0183H50.9885H50.9589H50.9295H50.9003H50.8714H50.8427H50.8142H50.786H50.758H50.7302H50.7027H50.6754H50.6483H50.6215H50.5949H50.5685H50.5424H50.5165H50.4909H50.4655H50.4404H50.4155H50.3908H50.3664H50.3422H50.3183H50.2946H50.2712H50.248H50.2251H50.2024H50.18H50.1578H50.1359H50.1142H50.0928H50.0717H50.0508H50.0301H50.0098H49.9896H49.9698H49.9502H49.9308H49.9118H49.893H49.8744H49.8561H49.8381H49.8204H49.8029H49.7857H49.7688H49.7521H49.7357H49.7196H49.7037H49.6882H49.6729H49.6578H49.6431H49.6286H49.6144H49.6005H49.5869H49.5735H49.5605H49.5477H49.5352H49.523H49.511H49.4994H49.488H49.4769H49.4661H49.4557H49.4454H49.4355H49.4259H49.4166H49.4075H49.3988H49.3903H49.3822H49.3743H49.3668H49.3595H49.3525H49.3459H49.3395H49.3335H49.3277H49.3223H49.3171H49.3123H49.3077H49.3035H49.2996H49.296H49.2927H49.2897H49.287H49.2846H49.2826H49.2808H49.2794H49.2783H49.2775H49.277C49.2769 11.6444 49.2769 11.6444 49.2769 14.1444C49.2769 11.6444 49.2768 11.6444 49.2767 11.6444H49.2762H49.2753H49.2741H49.2726H49.2707H49.2685H49.2659H49.263H49.2598H49.2562H49.2523H49.248H49.2434H49.2385H49.2333H49.2277H49.2218H49.2156H49.209H49.2021H49.1949H49.1873H49.1795H49.1713H49.1628H49.1539H49.1448H49.1353H49.1255H49.1154H49.105H49.0942H49.0832H49.0718H49.0601H49.0481H49.0358H49.0232H49.0102H48.997H48.9834H48.9696H48.9554H48.9409H48.9262H48.9111H48.8957H48.88H48.864H48.8478H48.8312H48.8143H48.7971H48.7797H48.7619H48.7438H48.7255H48.7068H48.6879H48.6687H48.6492H48.6294H48.6093H48.5889H48.5682H48.5473H48.526H48.5045H48.4827H48.4606H48.4383H48.4156H48.3927H48.3695H48.346H48.3223H48.2983H48.274H48.2494H48.2245H48.1994H48.174H48.1484H48.1225H48.0963H48.0698H48.0431H48.0161H47.9888H47.9613H47.9336H47.9055H47.8772H47.8487H47.8198H47.7908H47.7614H47.7318H47.702H47.6719H47.6416H47.611H47.5801H47.549H47.5177H47.4861H47.4542H47.4221H47.3898H47.3572H47.3244H47.2913H47.258H47.2244H47.1907H47.1566H47.1223H47.0878H47.0531H47.0181H46.9829H46.9475H46.9118H46.8759H46.8397H46.8034H46.7668H46.7299H46.6929H46.6556H46.6181H46.5803H46.5424H46.5042H46.4658H46.4272H46.3883H46.3493H46.31H46.2705H46.2308H46.1909H46.1507H46.1104H46.0698H46.029H45.988H45.9468H45.9054H45.8638H45.822H45.78H45.7377H45.6953H45.6526H45.6098H45.5667H45.5235H45.4801H45.4364H45.3926H45.3485H45.3043H45.2599H45.2152H45.1704H45.1254H45.0802H45.0348H44.9892H44.9435H44.8975H44.8513H44.805H44.7585H44.7118H44.6649H44.6178H44.5706H44.5232H44.4756H44.4278H44.3798H44.3317H44.2834H44.2349H44.1862H44.1374H44.0883H44.0392H43.9898H43.9403H43.8906H43.8407H43.7907H43.7405H43.6902H43.6397H43.589H43.5381H43.4871H43.436H43.3846H43.3331H43.2815H43.2297H43.1778H43.1256H43.0734H43.021H42.9684H42.9157H42.8628H42.8098H42.7566H42.7033H42.6499H42.5963H42.5425H42.4886H42.4346H42.3804H42.3261H42.2716H42.217H42.1623H42.1074H42.0524H41.9973H41.942H41.8866H41.831H41.7753H41.7195H41.6636H41.6075H41.5513H41.495H41.4386H41.382H41.3253H41.2685H41.2115H41.1544H41.0973H41.04H40.9825H40.925H40.8673H40.8095H40.7516H40.6936H40.6355H40.5773H40.5189H40.4605H40.4019H40.3432H40.2845H40.2256H40.1666H40.1075H40.0483H39.989H39.9295H39.87H39.8104H39.7507H39.6909H39.631H39.571H39.5109H39.4507H39.3904H39.33H39.2695H39.2089H39.1483H39.0875H39.0267H38.9658H38.9048H38.8437H38.7825H38.7212H38.6599H38.5984H38.5369H38.4753H38.4136H38.3519H38.2901H38.2281H38.1662H38.1041H38.042H37.9798H37.9175H37.8551H37.7927H37.7302H37.6677H37.605H37.5424H37.4796H37.4168H37.3539H37.2909H37.2279H37.1649H37.1017H37.0385H36.9753H36.912H36.8486H36.7852H36.7217H36.6582H36.5946H36.531H36.4673H36.4036H36.3398H36.2759H36.2121H36.1481H36.0842H36.0201H35.9561H35.892H35.8278H35.7636H35.6994H35.6352H35.5709H35.5065H35.4421H35.3777H35.3133H35.2488H35.1843H35.1197H35.0552H34.9906H34.9259H34.8613H34.7966H34.7318H34.6671H34.6023H34.5375H34.4727H34.4079H34.343H34.2782H34.2133H34.1484H34.0834H34.0185H33.9535H33.8885H33.8236H33.7586H33.6935H33.6285H33.5635H33.4984H33.4334H33.3683H33.3033H33.2382H33.1731H33.108H33.043H32.9779H32.9128H32.8477H32.7826H32.7176H32.6525H32.5874H32.5224H32.4573H32.3922H32.3272H32.2622H32.1971H32.1321H32.0671H32.0021H31.9371H31.8722H31.8072H31.7423H31.6774H31.6125H31.5476H31.4827H31.4179H31.3531H31.2883H31.2235H31.1587H31.094H31.0293H30.9646H30.9H30.8354H30.7708H30.7062H30.6417H30.5772H30.5127H30.4483H30.3839H30.3196H30.2553H30.191H30.1267H30.0625H29.9984H29.9343H29.8702H29.8062H29.7422H29.6782H29.6143H29.5505H29.4867H29.4229H29.3592H29.2956H29.232H29.1684H29.1049H29.0415H28.9781H28.9148H28.8515H28.7883H28.7251H28.662H28.599H28.536H28.4731H28.4103H28.3475H28.2848H28.2221H28.1595H28.097H28.0346H27.9722H27.9099H27.8477H27.7855H27.7234H27.6614H27.5995H27.5376H27.4759H27.4141H27.3525H27.291H27.2295H27.1681H27.1068H27.0456H27.0142C27.0259 10.5975 27.0536 9.77287 27.1192 9.10017C27.2053 8.21592 27.3372 7.89443 27.3798 7.80937C27.4603 7.77088 27.6862 7.68843 28.2022 7.62304C29.1351 7.5048 30.449 7.5 32.5227 7.5H65.0625ZM74.6364 14.1444V14.0258C74.6364 11.8406 74.6364 10.0373 74.5166 8.64369C74.3999 7.28558 74.1425 5.79358 73.2295 4.61338C72.2109 3.29661 70.7811 2.85121 69.5075 2.66827C68.3332 2.49961 66.8539 2.49979 65.2294 2.49998L65.0625 2.5H32.5227L32.3652 2.49999C30.496 2.49986 28.8594 2.49975 27.5735 2.66272C26.235 2.83236 24.7335 3.234 23.628 4.49495C22.5831 5.68673 22.2783 7.22329 22.1427 8.6154C22.0056 10.0233 22.0056 11.8388 22.0057 14.0129L22.0057 14.1444L12.9086 14.1444C10.1912 14.1444 8.97812 14.1444 8.43662 14.7474C8 15.2336 8 16.1119 8 17.6985V24.3624H91V17.6985C91 16.1627 91 15.2906 90.568 14.7953C90.0002 14.1444 88.6861 14.1444 85.6452 14.1444L74.6364 14.1444ZM69.3712 7.7588C69.3703 7.75918 69.362 7.75536 69.349 7.74619C69.3656 7.75384 69.3721 7.75842 69.3712 7.7588ZM27.3425 7.83101C27.342 7.83077 27.3463 7.82719 27.3573 7.82097C27.3486 7.82814 27.3431 7.83124 27.3425 7.83101Z" fill="currentColor"/>
            <path fill-rule="evenodd" clip-rule="evenodd" d="M12 29L27.1307 99.5294H68.3963L86.7366 29H12ZM72.7022 32.6506C69.8977 32.1853 67.2999 34.0898 66.8999 36.9043L60.083 84.8701C59.683 87.6846 61.6322 90.3435 64.4367 90.8088C67.2412 91.2741 69.8389 89.3696 70.2389 86.5551L77.0558 38.5893C77.4558 35.7748 75.5066 33.1159 72.7022 32.6506ZM25.3918 32.651C22.5873 33.1165 20.6383 35.7754 21.0384 38.5899L27.858 86.5553C28.2581 89.3698 30.856 91.2741 33.6605 90.8086C36.4649 90.3431 38.414 87.6841 38.0138 84.8696L31.1943 36.9043C30.7941 34.0897 28.1963 32.1855 25.3918 32.651ZM43.9463 38.0558C43.9463 35.2184 46.2464 32.9183 49.0838 32.9183C51.9211 32.9183 54.2213 35.2184 54.2213 38.0558V85.5105C54.2213 88.3478 51.9211 90.6479 49.0838 90.6479C46.2464 90.6479 43.9463 88.3478 43.9463 85.5105V38.0558Z" fill="currentColor"/>
            <path d="M27.1307 99.5294L24.6863 100.054L25.1102 102.029H27.1307V99.5294ZM12 29V26.5H8.90679L9.55562 29.5244L12 29ZM68.3963 99.5294V102.029H70.3294L70.8158 100.159L68.3963 99.5294ZM86.7366 29L89.1561 29.6292L89.9698 26.5H86.7366V29ZM66.8999 36.9043L64.4248 36.5525L64.4248 36.5525L66.8999 36.9043ZM72.7022 32.6506L72.293 35.1169L72.293 35.1169L72.7022 32.6506ZM60.083 84.8701L62.5581 85.2218L62.5581 85.2218L60.083 84.8701ZM64.4367 90.8088L64.8459 88.3425L64.8459 88.3425L64.4367 90.8088ZM70.2389 86.5551L67.7638 86.2033L67.7638 86.2033L70.2389 86.5551ZM77.0558 38.5893L79.531 38.9411L79.531 38.9411L77.0558 38.5893ZM21.0384 38.5899L18.5633 38.9418L18.5633 38.9418L21.0384 38.5899ZM25.3918 32.651L25.8012 35.1172L25.8012 35.1172L25.3918 32.651ZM27.858 86.5553L30.3331 86.2034L30.3331 86.2034L27.858 86.5553ZM33.6605 90.8086L33.2511 88.3423L33.2511 88.3423L33.6605 90.8086ZM38.0138 84.8696L40.4889 84.5177L40.4889 84.5177L38.0138 84.8696ZM31.1943 36.9043L28.7192 37.2562L28.7192 37.2562L31.1943 36.9043ZM29.5751 99.005L14.4444 28.4756L9.55562 29.5244L24.6863 100.054L29.5751 99.005ZM68.3963 97.0294H27.1307V102.029H68.3963V97.0294ZM84.317 28.3708L65.9768 98.9002L70.8158 100.159L89.1561 29.6292L84.317 28.3708ZM12 31.5H86.7366V26.5H12V31.5ZM69.375 37.2561C69.5776 35.831 70.873 34.8813 72.293 35.1169L73.1113 30.1843C68.9223 29.4893 65.0223 32.3485 64.4248 36.5525L69.375 37.2561ZM62.5581 85.2218L69.375 37.2561L64.4248 36.5525L57.6079 84.5183L62.5581 85.2218ZM64.8459 88.3425C63.3812 88.0995 62.3492 86.6918 62.5581 85.2218L57.6079 84.5183C57.0168 88.6774 59.8833 92.5875 64.0275 93.275L64.8459 88.3425ZM67.7638 86.2033C67.5613 87.6284 66.2659 88.5781 64.8459 88.3425L64.0275 93.275C68.2165 93.9701 72.1166 91.1109 72.7141 86.9069L67.7638 86.2033ZM74.5807 38.2375L67.7638 86.2033L72.7141 86.9069L79.531 38.9411L74.5807 38.2375ZM72.293 35.1169C73.7577 35.3599 74.7896 36.7676 74.5807 38.2376L79.531 38.9411C80.1221 34.782 77.2556 30.8719 73.1113 30.1843L72.293 35.1169ZM23.5135 38.238C23.3045 36.7681 24.3364 35.3603 25.8012 35.1172L24.9824 30.1847C20.8383 30.8726 17.972 34.7828 18.5633 38.9418L23.5135 38.238ZM30.3331 86.2034L23.5135 38.238L18.5633 38.9418L25.3829 86.9072L30.3331 86.2034ZM33.2511 88.3423C31.8312 88.578 30.5357 87.6284 30.3331 86.2034L25.3829 86.9072C25.9806 91.1112 29.8808 93.9701 34.0698 93.2748L33.2511 88.3423ZM35.5387 85.2215C35.7477 86.6915 34.7158 88.0992 33.2511 88.3423L34.0698 93.2748C38.214 92.587 41.0803 88.6768 40.4889 84.5177L35.5387 85.2215ZM28.7192 37.2562L35.5387 85.2215L40.4889 84.5177L33.6694 36.5524L28.7192 37.2562ZM25.8012 35.1172C27.2211 34.8815 28.5166 35.8311 28.7192 37.2562L33.6694 36.5524C33.0717 32.3483 29.1714 29.4894 24.9824 30.1847L25.8012 35.1172ZM49.0838 30.4183C44.8657 30.4183 41.4463 33.8377 41.4463 38.0558H46.4463C46.4463 36.5991 47.6271 35.4183 49.0838 35.4183V30.4183ZM56.7213 38.0558C56.7213 33.8377 53.3019 30.4183 49.0838 30.4183V35.4183C50.5404 35.4183 51.7213 36.5991 51.7213 38.0558H56.7213ZM56.7213 85.5105V38.0558H51.7213V85.5105H56.7213ZM49.0838 93.1479C53.3019 93.1479 56.7213 89.7285 56.7213 85.5105H51.7213C51.7213 86.9671 50.5404 88.1479 49.0838 88.1479V93.1479ZM41.4463 85.5105C41.4463 89.7285 44.8657 93.1479 49.0838 93.1479V88.1479C47.6271 88.1479 46.4463 86.9671 46.4463 85.5105H41.4463ZM41.4463 38.0558V85.5105H46.4463V38.0558H41.4463Z" fill="currentColor"/>
        </g>
        <defs>
            <clipPath id="clip0_134_2">
                <rect width="100" height="100" fill="white"/>
            </clipPath>
        </defs>
    </symbol>

    <symbol id="info" viewBox="0 0 100 100">
        <g xmlns="http://www.w3.org/2000/svg" clip-path="url(#clip0_114_2)">
            <path fill="currentColor" fill-rule="evenodd" clip-rule="evenodd" d="M50 100C77.6142 100 100 77.6142 100 50C100 22.3858 77.6142 0 50 0C22.3858 0 0 22.3858 0 50C0 77.6142 22.3858 100 50 100ZM60 19C60 24.5228 55.5228 29 50 29C44.4772 29 40 24.5228 40 19C40 13.4772 44.4772 9 50 9C55.5228 9 60 13.4772 60 19ZM42 40C42 37.2386 44.2386 35 47 35H53C55.7614 35 58 37.2386 58 40V84C58 86.7614 55.7614 89 53 89H47C44.2386 89 42 86.7614 42 84V40Z"/>
        </g>
    </symbol>

    <symbol id="plus" viewBox="0 0 100 100">
        <g clip-path="url(#clip0_285_2)">
            <path fill-rule="evenodd" clip-rule="evenodd" d="M55 0H45V45H0V55H45V100H55V55H100V45H55V0Z" fill="#D9D9D9"/>
        </g>
        <defs>
            <clipPath id="clip0_285_2">
                <rect width="100" height="100" fill="white"/>
            </clipPath>
        </defs>
    </symbol>
   

    <symbol id="edit" viewBox="0 0 100 100">
        <rect x="70.298" y="11.9274" width="25" height="85.5334" transform="rotate(45 70.298 11.9274)" fill="currentColor"/>
        <path d="M79.2 2.94974C81.9337 0.216075 86.3659 0.216077 89.0995 2.94975L96.8777 10.7279C99.6114 13.4616 99.6114 17.8937 96.8777 20.6274L91.6777 25.8274L74 8.14976L79.2 2.94974Z" fill="currentColor"/>
        <path d="M0.112095 99.5076L7.38224 74.7063L24.8969 92.1813L0.112095 99.5076Z" fill="currentColor"/>
    </symbol>
</svg>